<svg width="24" height="24" viewBox="0 0 24 24" fill="none" xmlns="http://www.w3.org/2000/svg">
<path d="M6.08577 23.9151C4.65848 23.8502 3.88314 23.6127 3.36743 23.4115C2.6841 23.1455 2.19693 22.8288 1.68407 22.3166C1.17122 21.8045 0.853806 21.3173 0.589176 20.634C0.388029 20.1183 0.150504 19.3429 0.0855946 17.9157C0.0142658 16.3728 0 15.9099 0 12.0011C0 8.09225 0.0156923 7.63004 0.0848813 6.08577C0.14979 4.65848 0.388742 3.88457 0.588463 3.36743C0.854519 2.6841 1.17193 2.19693 1.68336 1.68336C2.1955 1.17122 2.68268 0.853092 3.36672 0.588463C3.88243 0.387315 4.65777 0.14979 6.08506 0.0848813C7.62861 0.0142658 8.09225 0 11.9996 0C15.9085 0 16.3707 0.0156923 17.9149 0.0848813C19.3422 0.14979 20.1161 0.388742 20.6333 0.588463C21.3166 0.853092 21.8038 1.17122 22.3166 1.68336C22.8295 2.1955 23.1455 2.68339 23.4115 3.36672C23.6127 3.88243 23.8502 4.65777 23.9151 6.08506C23.9857 7.62933 24 8.09154 24 12.0004C24 15.9077 23.9857 16.3714 23.9151 17.9157C23.8502 19.3429 23.6113 20.1183 23.4115 20.634C23.1455 21.3173 22.8288 21.8045 22.3166 22.3166C21.8045 22.8288 21.3166 23.1455 20.6333 23.4115C20.1176 23.6127 19.3422 23.8502 17.9149 23.9151C16.3721 23.9857 15.9085 24 11.9996 24C8.09225 24 7.62862 23.9864 6.08577 23.9151Z" fill="url(#paint0_radial_2_54)"/>
<path d="M6.08577 23.9151C4.65848 23.8502 3.88314 23.6127 3.36743 23.4115C2.6841 23.1455 2.19693 22.8288 1.68407 22.3166C1.17122 21.8045 0.853806 21.3173 0.589176 20.634C0.388029 20.1183 0.150504 19.3429 0.0855946 17.9157C0.0142658 16.3728 0 15.9099 0 12.0011C0 8.09225 0.0156923 7.63004 0.0848813 6.08577C0.14979 4.65848 0.388742 3.88457 0.588463 3.36743C0.854519 2.6841 1.17193 2.19693 1.68336 1.68336C2.1955 1.17122 2.68268 0.853092 3.36672 0.588463C3.88243 0.387315 4.65777 0.14979 6.08506 0.0848813C7.62861 0.0142658 8.09225 0 11.9996 0C15.9085 0 16.3707 0.0156923 17.9149 0.0848813C19.3422 0.14979 20.1161 0.388742 20.6333 0.588463C21.3166 0.853092 21.8038 1.17122 22.3166 1.68336C22.8295 2.1955 23.1455 2.68339 23.4115 3.36672C23.6127 3.88243 23.8502 4.65777 23.9151 6.08506C23.9857 7.62933 24 8.09154 24 12.0004C24 15.9077 23.9857 16.3714 23.9151 17.9157C23.8502 19.3429 23.6113 20.1183 23.4115 20.634C23.1455 21.3173 22.8288 21.8045 22.3166 22.3166C21.8045 22.8288 21.3166 23.1455 20.6333 23.4115C20.1176 23.6127 19.3422 23.8502 17.9149 23.9151C16.3721 23.9857 15.9085 24 11.9996 24C8.09225 24 7.62862 23.9864 6.08577 23.9151Z" fill="url(#paint1_radial_2_54)"/>
<path d="M9.05341 12.0511C9.05341 10.4098 10.3836 9.07887 12.025 9.07887C13.6663 9.07887 14.9972 10.4098 14.9972 12.0511C14.9972 13.6925 13.6663 15.0234 12.025 15.0234C10.3836 15.0234 9.05341 13.6925 9.05341 12.0511ZM7.44665 12.0511C7.44665 14.5797 9.49636 16.6294 12.025 16.6294C14.5536 16.6294 16.6033 14.5797 16.6033 12.0511C16.6033 9.52253 14.5536 7.47283 12.025 7.47283C9.49636 7.47283 7.44672 9.52239 7.44672 12.0511M15.7147 7.2913C15.7146 7.50291 15.7772 7.7098 15.8947 7.88579C16.0122 8.06179 16.1793 8.19899 16.3748 8.28005C16.5702 8.36111 16.7853 8.38238 16.9929 8.34118C17.2005 8.29998 17.3912 8.19816 17.5408 8.04858C17.6905 7.89901 17.7925 7.70841 17.8339 7.50088C17.8752 7.29335 17.8541 7.07821 17.7732 6.88268C17.6923 6.68714 17.5553 6.51998 17.3794 6.40235C17.2035 6.28471 16.9966 6.22188 16.785 6.22179H16.7846C16.5009 6.22193 16.2289 6.33463 16.0283 6.53516C15.8277 6.73569 15.7149 7.00765 15.7147 7.2913ZM8.42286 19.3087C7.55358 19.2691 7.08109 19.1243 6.7671 19.002C6.35083 18.8399 6.05382 18.6469 5.74154 18.3351C5.42926 18.0232 5.23596 17.7265 5.07461 17.3102C4.95221 16.9964 4.80742 16.5237 4.7679 15.6545C4.72468 14.7146 4.71604 14.4323 4.71604 12.0513C4.71604 9.67026 4.72539 9.38872 4.7679 8.44811C4.80749 7.57882 4.95336 7.10713 5.07461 6.79235C5.23667 6.37608 5.42969 6.07906 5.74154 5.76679C6.05339 5.45451 6.35012 5.26121 6.7671 5.09986C7.08095 4.97746 7.55358 4.83267 8.42286 4.79315C9.36269 4.74992 9.64501 4.74129 12.025 4.74129C14.4049 4.74129 14.6875 4.75049 15.6281 4.79329C16.4974 4.83288 16.9691 4.97875 17.2839 5.10001C17.7002 5.26135 17.9972 5.45508 18.3095 5.76693C18.6217 6.07878 18.8143 6.37622 18.9764 6.7925C19.0988 7.10634 19.2436 7.57897 19.2831 8.44825C19.3263 9.38886 19.335 9.6704 19.335 12.0514C19.335 14.4325 19.3263 14.714 19.2831 15.6546C19.2435 16.5239 19.098 16.9964 18.9764 17.3104C18.8143 17.7266 18.6213 18.0236 18.3095 18.3352C17.9976 18.6468 17.7002 18.8401 17.2839 19.0021C16.97 19.1245 16.4974 19.2693 15.6281 19.3088C14.6883 19.3521 14.406 19.3607 12.025 19.3607C9.64394 19.3607 9.3624 19.3521 8.42286 19.3088M8.34903 3.18904C7.39986 3.23226 6.75127 3.38277 6.18485 3.60317C5.5986 3.83078 5.10165 4.13614 4.60541 4.63159C4.10918 5.12704 3.8046 5.62406 3.57699 6.21102C3.35659 6.7778 3.20609 7.42604 3.16286 8.37521C3.11892 9.32588 3.10886 9.62981 3.10886 12.0511C3.10886 14.4725 3.11892 14.7764 3.16286 15.7271C3.20609 16.6763 3.35659 17.3245 3.57699 17.8913C3.8046 18.4775 4.10925 18.9755 4.60541 19.4707C5.10158 19.9659 5.59788 20.2709 6.18485 20.4991C6.75234 20.7195 7.39986 20.87 8.34903 20.9132C9.3002 20.9565 9.60364 20.9672 12.025 20.9672C14.4463 20.9672 14.7502 20.9572 15.7009 20.9132C16.6501 20.87 17.2983 20.7195 17.8651 20.4991C18.4513 20.2709 18.9483 19.9661 19.4445 19.4707C19.9407 18.9752 20.2447 18.4775 20.4729 17.8913C20.6933 17.3245 20.8446 16.6762 20.8871 15.7271C20.9303 14.7757 20.9403 14.4725 20.9403 12.0511C20.9403 9.62981 20.9303 9.32588 20.8871 8.37521C20.8438 7.42597 20.6933 6.77745 20.4729 6.21102C20.2447 5.62477 19.94 5.12782 19.4445 4.63159C18.9491 4.13536 18.4513 3.83078 17.8658 3.60317C17.2983 3.38277 16.6501 3.23155 15.7016 3.18904C14.7508 3.1456 14.447 3.13504 12.026 3.13504C9.60506 3.13504 9.30056 3.1451 8.34939 3.18904" fill="white"/>
<defs>
<radialGradient id="paint0_radial_2_54" cx="0" cy="0" r="1" gradientUnits="userSpaceOnUse" gradientTransform="translate(1.55326 23.4742) scale(30.4711)">
<stop offset="0.09" stop-color="#FA8F21"/>
<stop offset="0.78" stop-color="#D82D7E"/>
</radialGradient>
<radialGradient id="paint1_radial_2_54" cx="0" cy="0" r="1" gradientUnits="userSpaceOnUse" gradientTransform="translate(16.624 22.7036) scale(26.8148)">
<stop offset="0.64" stop-color="#8C3AAA" stop-opacity="0"/>
<stop offset="1" stop-color="#8C3AAA"/>
</radialGradient>
</defs>
</svg>
